<svg xmlns="http://www.w3.org/2000/svg" width="908.96826mm" height="200mm" viewBox="0 0 908.96826 200"><defs><clipPath id="a" clipPathUnits="userSpaceOnUse"><path d="M0 595.28h841.89V0H0Z"/></clipPath></defs><g clip-path="url(#a)" transform="matrix(1.31304 0 0 -1.31304 -98.235 490.814)"><path d="M685.962 261.04H638.49v39.559h47.472zm-53.406 59.339c-10.922 0-19.779-8.856-19.779-19.78V261.04c0-10.922 8.857-19.777 19.779-19.777h53.332v-19.782h25.786v98.898z" style="fill:#002749;fill-opacity:1;fill-rule:nonzero;stroke:none"/><path d="M0 0h37.674L3.61 39.558l34.064 39.559H0l-33.531-39.559Z" style="fill:#0095da;fill-opacity:1;fill-rule:nonzero;stroke:none" transform="translate(136.037 241.263)"/><path d="M102.506 320.379H74.815v-79.117h27.691z" style="fill:#002749;fill-opacity:1;fill-rule:nonzero;stroke:none"/><path d="M0 0h-53.442l-27.71-27.706h53.441v-53.441L0-53.439Z" style="fill:#ed1c24;fill-opacity:1;fill-rule:nonzero;stroke:none" transform="translate(767.075 373.799)"/><path d="M0 0h-59.338c-10.924 0-19.778-8.856-19.778-19.781v-59.336h25.712v59.336h47.47v-59.336h25.713v59.336C19.779-8.856 10.924 0 0 0" style="fill:#002749;fill-opacity:1;fill-rule:nonzero;stroke:none" transform="translate(583.107 320.38)"/><path d="M585.701 263.053h-65.708v17.768h65.708z" style="fill:#002749;fill-opacity:1;fill-rule:nonzero;stroke:none"/><path d="M0 0h-79.116v-19.781h73.182v-39.558h-47.471v27.692h-25.711v-47.47H0c10.924 0 19.779 8.855 19.779 19.778v39.558C19.779-8.856 10.924 0 0 0" style="fill:#002749;fill-opacity:1;fill-rule:nonzero;stroke:none" transform="translate(474.357 320.38)"/><path d="M0 0h-47.472v39.559H0V11.868h25.713v27.691c0 10.924-8.856 19.78-19.779 19.78h-59.338c-10.925 0-19.779-8.856-19.779-19.78V0c0-10.922 8.854-19.777 19.779-19.777H5.934c10.923 0 19.779 8.855 19.779 19.777z" style="fill:#002749;fill-opacity:1;fill-rule:nonzero;stroke:none" transform="translate(250.85 261.04)"/><path d="m0 0-53.404.039v11.827h71.206v19.781h-77.14c-10.924 0-19.779-8.856-19.779-19.781V2.05c0-10.926 8.855-19.78 19.779-19.78h53.404v-9.962H-77.14V-47.47H0c10.923 0 19.778 8.855 19.778 19.778v7.912C19.778-8.858 10.923 0 0 0" style="fill:#002749;fill-opacity:1;fill-rule:nonzero;stroke:none" transform="translate(365.571 288.732)"/></g></svg>