<svg xmlns="http://www.w3.org/2000/svg" xml:space="preserve" width="509.10413" height="200.00002" viewBox="0 0 509.10414 200.00001"><path d="M0 0v.242c-5.408.707-10.54-3.357-11.824-9.654h4.113C-7.711-4.213-4.401-.613 0 0" style="fill:#00b4d6;fill-opacity:1;fill-rule:nonzero;stroke:none" transform="matrix(5.39055 0 0 -5.39055 445.366 16.214)"/><path d="M0 0h.231c.67 5.68-3.197 11.07-9.191 12.42V8.117C-4.013 8.117 0 4.707 0 0" style="fill:#e4a015;fill-opacity:1;fill-rule:nonzero;stroke:none" transform="matrix(5.39055 0 0 -5.39055 493.665 66.95)"/><path d="M0 0v-.244c5.406-.703 10.538 3.357 11.824 9.658H7.709C7.709 4.215 4.605.307 0 0" style="fill:#00b4d6;fill-opacity:1;fill-rule:nonzero;stroke:none" transform="matrix(5.39055 0 0 -5.39055 445.366 117.677)"/><path d="M-190.61 440.777h25.296v98.075h-25.297z" style="fill:#00b4d6;fill-opacity:1;fill-rule:nonzero;stroke:none;stroke-width:4.02557" transform="matrix(1.33908 0 0 -1.33908 255.242 790.231)"/><path d="m0 0 12.507 11.139H4.566l-11.071-9.61C-7.126.99-7.427.189-7.427-.674c0-.965.442-1.765 1.133-2.394L4.905-13.225h8.489L0-1.135C-.408-.777-.418-.373 0 0" style="fill:#00b4d6;fill-opacity:1;fill-rule:nonzero;stroke:none" transform="matrix(5.39055 0 0 -5.39055 79.665 128.71)"/><path d="M-3.97 478.854h14.308c14.524 0 24.306 9.436 24.306 24.335v11.328c0 14.894-9.782 24.334-24.306 24.334h-62.11c-11.751 0-21.268-9.52-21.268-21.267v-76.808h25.3v74.191c0 3.72 3.012 6.731 6.732 6.731H1.147c4.537 0 8.205-3.61 8.205-8.188V503.19c0-4.453-3.615-8.184-8.205-8.184H-28.11c-4.384 0-7.806-.983-9.714-5.906-1.586-4.026.402-8.482 2.862-10.788 1.824-1.715 41.242-37.535 41.242-37.535h32.905v.057z" style="fill:#00b4d6;fill-opacity:1;fill-rule:nonzero;stroke:none;stroke-width:4.02557" transform="matrix(1.33908 0 0 -1.33908 255.242 790.231)"/><path d="m0 0 10.797 11.82H3.508l-7.151-7.857-7.152 7.857h-7.287L-7.285 0l-11.552-12.529v-.014h7.441l7.753 8.67 7.752-8.67h7.457z" style="fill:#00b4d6;fill-opacity:1;fill-rule:nonzero;stroke:none" transform="matrix(5.39055 0 0 -5.39055 409.254 132.385)"/></svg>